<svg xmlns="http://www.w3.org/2000/svg" baseProfile="tiny" viewBox="0 0 512 512" overflow="visible"><circle fill="#10b981" cx="256" cy="256" r="250"/><g fill="#fff" stroke="#000" stroke-miterlimit="4.055" stroke-width="3.041"><path fill-rule="evenodd" d="M223.019 347.313c-13.584 32.136-30.311 45.112-46.632 60.926 18.247.101 36.394-3.447 55.249-19.261.304 48.964 10.746 64.778 24.33 82.114 13.381-16.727 24.533-33.15 24.431-82.114 18.856 15.814 37.002 19.363 55.249 19.261-16.22-15.814-32.947-28.79-46.531-60.926h-66.096z"/><path d="M182.469 323.186h146.993v24.127H182.469z"/><path d="M255.966 40.959c-52.918 56.466-73.294 121.447-31.223 202.75 9.631 24.735 17.132 50.282 15.612 79.478h31.223c-1.521-29.196 5.981-54.742 15.612-79.478 42.071-81.303 21.694-146.284-31.223-202.75zM143.845 180.957c-53.425 1.318-89.007 91.237 23.012 135.133-37.002-72.787 31.629-45.821 40.753 7.096h26.56c-14.699-107.457-56.162-143.04-90.325-142.229zm222.315 0c-33.758.608-73.902 36.9-88.297 142.229h26.56c9.022-52.918 77.754-79.883 40.753-7.096 113.438-44.402 75.423-136.146 20.985-135.133z" fill-rule="evenodd"/></g></svg>